# xmcd CD database file
#
# Track frame offsets:
#	150
#	18278
#	44385
#	65714
#	81541
#	102241
#	124523
#	143260
#	168129
#	189589
#	210171
#
# Disc length: 3086 seconds
#
# Revision: 5
# Processed by: cddbd v1.4PL0 Copyright (c) Steve Scherf et al.
# Submitted via: CDex 1.50Beta7
#
DISCID=890c0c0b
DTITLE=Zucchero Sugar Fornaciari - BlueSugar
DYEAR=1900
DGENRE=Blues
TTITLE0=You Make Me Feel Loved
TTITLE1=Blu
TTITLE2=Arcord
TTITLE3=Puro Amore
TTITLE4=Back 2 U
TTITLE5=Donkey Tonkey
TTITLE6=(Temporaneamente) X Sempre Tuo
TTITLE7=Eccetera Eccetera
TTITLE8=Karma, Stai Kalma (featuring Irene Fornaciari)
TTITLE9=Dopo Di Noi
TTITLE10=I Tempi Cambieranno
EXTD=In memory of Franco Mamone
EXTT0=
EXTT1=
EXTT2=
EXTT3=
EXTT4=
EXTT5=
EXTT6=
EXTT7=
EXTT8=
EXTT9=
EXTT10=
PLAYORDER=
